In the wake of his young bride's mysterious death, grieving newlywed Jamie Ashen (Ryan Kwanten) is forced to return to his haunted hometown, where he butts heads with the ghost of a creepy ventriloquist who was infamously murdered years ago. Amber Valletta and Donnie Wahlberg co-star in this chilling horror offering from James Wan and Leigh Whannell, the same team that created the grizzly Saw trilogy. 


MP4
File size : 2.30 GiB
Duration : 1h 31mn
Overall bit rate : 3 593 Kbps

VIDEO
Duration : 1h 31mn
Bit rate mode : Variable
Bit rate : 3 018 Kbps
Maximum bit rate : 16.8 Mbps
Width : 1 280 pixels
Height : 528 pixels
Display aspect ratio : 2.40:1
Frame rate mode : Constant
Frame rate : 23.976 fps
Resolution : 24 bits
Stream size : 1.93 GiB (84%)

Audio #1
ID : 2
Format : AAC
Bit rate mode : Variable
Bit rate : 128 Kbps
Maximum bit rate : 136 Kbps
Channel(s) : 2 channels
Channel positions : L R
Sampling rate : 48.0 KHz
Resolution : 16 bits
Stream size : 83.8 MiB (4%)

Audio #2
ID : 3
Format : AAC
Duration : 1h 31mn
Bit rate mode : Variable
Bit rate : 448 Kbps
Maximum bit rate : 463 Kbps
Channel(s) : 6 channels
Channel positions : Front: L C R, Rear: L R, LFE
Sampling rate : 48.0 KHz
Resolution : 16 bits
Stream size : 293 MiB (12%)
